<?xml version="1.0" standalone="no"?>
<!DOCTYPE svg PUBLIC "-//W3C//DTD SVG 20010904//EN"
 "http://www.w3.org/TR/2001/REC-SVG-20010904/DTD/svg10.dtd">
<svg version="1.0" xmlns="http://www.w3.org/2000/svg"
 width="149.000000pt" height="45.000000pt" viewBox="0 0 149.000000 45.000000"
 preserveAspectRatio="xMidYMid meet">
<metadata>
Created by potrace 1.16, written by Peter Selinger 2001-2019
</metadata>
<g transform="translate(0.000000,45.000000) scale(0.100000,-0.100000)"
fill="#000000" stroke="none">
<path d="M250 266 c0 -43 3 -48 51 -86 28 -22 61 -40 72 -40 20 0 20 2 -8 25
-16 13 -38 27 -47 30 -20 7 -33 47 -24 70 8 21 82 21 90 -1 3 -8 2 -24 -4 -34
-8 -15 -3 -23 26 -45 l36 -27 -15 28 c-14 27 -13 31 3 52 14 16 17 29 11 45
-8 20 -16 22 -100 25 l-91 3 0 -45z"/>
</g>
</svg>
